<svg xmlns="http://www.w3.org/2000/svg" width="24" height="25" viewBox="0 0 24 25" fill="none">
    <mask id="mask0_22866_88709" style="mask-type:luminance" maskUnits="userSpaceOnUse" x="0" y="0" width="24" height="25">
        <path d="M24 0.5H0V24.5H24V0.5Z" fill="white"/>
    </mask>
    <g mask="url(#mask0_22866_88709)">
        <path d="M2.2959 15.8344V16.7828C2.29598 16.9842 2.35054 17.1826 2.45492 17.3611C2.55931 17.5398 2.71043 17.6931 2.89542 17.8083L7.1041 14.049L5.93729 13.0069C5.90607 12.979 5.86902 12.9569 5.82823 12.9418C5.78746 12.9267 5.74374 12.9189 5.69959 12.9189C5.65545 12.9189 5.61174 12.9267 5.57097 12.9418C5.53018 12.9569 5.49313 12.979 5.46191 13.0069L2.2959 15.8344Z" fill="url(#paint0_linear_22866_88709)"/>
        <path d="M5.69875 11.7766C5.83984 11.7763 5.9796 11.8009 6.10995 11.8492C6.24029 11.8975 6.35861 11.9683 6.45807 12.0577L7.89532 13.3414L10.8462 10.7057C11.1523 10.4327 11.5671 10.2794 11.9996 10.2794C12.4321 10.2794 12.847 10.4327 13.153 10.7057L17.2562 14.3705L18.5243 13.2378C18.7259 13.0582 18.9988 12.9573 19.2836 12.9573C19.5683 12.9573 19.8414 13.0582 20.0428 13.2378L21.704 14.7227V8.2187C21.704 7.99908 21.6392 7.78333 21.5162 7.59314C21.3932 7.40295 21.2164 7.24502 21.0035 7.1352L12.7 2.8532C12.4871 2.74337 12.2454 2.68555 11.9995 2.68555C11.7536 2.68555 11.512 2.74337 11.299 2.8532L2.99542 7.1352C2.78248 7.24502 2.60564 7.40295 2.48268 7.59314C2.35972 7.78333 2.29497 7.99908 2.29492 8.2187V14.4192L4.93896 12.0576C5.03849 11.9681 5.15691 11.8973 5.28733 11.8491C5.41775 11.8009 5.5576 11.7762 5.69875 11.7766Z" fill="url(#paint1_linear_22866_88709)"/>
        <path d="M18.0488 15.0781L21.1045 17.8079C21.2895 17.6927 21.4406 17.5393 21.5449 17.3608C21.6493 17.1823 21.7038 16.9839 21.7039 16.7825V16.1374L19.5208 14.1875C19.4578 14.1312 19.3723 14.0996 19.2832 14.0996C19.1939 14.0996 19.1084 14.1312 19.0454 14.1875L18.0488 15.0781Z" fill="url(#paint2_linear_22866_88709)"/>
        <path d="M17.2561 15.7856L16.4639 15.0781L12.3608 11.4134C12.265 11.3279 12.1353 11.28 12 11.28C11.8647 11.28 11.7349 11.3279 11.6392 11.4134L8.68826 14.0491L7.89597 14.7568L3.89551 18.3295L11.2991 22.1476C11.5121 22.2574 11.7537 22.3153 11.9996 22.3153C12.2455 22.3153 12.4871 22.2574 12.7001 22.1476L20.1036 18.3295L17.2561 15.7856Z" fill="url(#paint3_linear_22866_88709)"/>
        <path d="M12.0001 1.53474C12.2747 1.53467 12.5446 1.59923 12.7824 1.7219L22.0591 6.50574C22.2971 6.62843 22.4945 6.80487 22.6318 7.01735C22.7692 7.22984 22.8415 7.47086 22.8415 7.71621V17.2839C22.8415 17.5292 22.7692 17.7702 22.6318 17.9827C22.4945 18.1951 22.2971 18.3716 22.0591 18.4943L12.7824 23.2781C12.5445 23.4007 12.2747 23.4654 12 23.4654C11.7253 23.4654 11.4554 23.4007 11.2176 23.2781L1.94087 18.4943C1.70299 18.3716 1.50545 18.1951 1.36811 17.9827C1.23078 17.7702 1.15848 17.5292 1.15848 17.2839V7.71621C1.15848 7.47086 1.23078 7.22984 1.36811 7.01735C1.50546 6.80487 1.70299 6.62843 1.94087 6.50574L11.2176 1.7219C11.4555 1.59924 11.7254 1.53469 12.0001 1.53474ZM12.0001 0.5C11.5221 0.500167 11.0525 0.612552 10.6384 0.825891L1.36163 5.60973C0.948156 5.82373 0.604792 6.1309 0.365851 6.50054C0.126911 6.8702 0.0007592 7.28938 0 7.71621V17.2839C0.000783631 17.7108 0.126961 18.13 0.365921 18.4995C0.604882 18.8692 0.948262 19.1764 1.36175 19.3904L10.6384 24.1742C11.0524 24.3877 11.522 24.5 12.0001 24.5C12.4781 24.5 12.9477 24.3877 13.3617 24.1742L22.6384 19.3904C23.0519 19.1765 23.3954 18.8692 23.6344 18.4996C23.8734 18.13 23.9996 17.7108 24.0005 17.2839V7.71621C23.9998 7.28938 23.8735 6.8702 23.6347 6.50056C23.3956 6.13091 23.0523 5.82373 22.6389 5.60973L13.3622 0.825891C12.9482 0.612566 12.4786 0.500182 12.0005 0.5H12.0001Z" fill="url(#paint4_linear_22866_88709)"/>
    </g>
    <defs>
        <linearGradient id="paint0_linear_22866_88709" x1="4.69999" y1="2.83704" x2="4.69999" y2="22.3945" gradientUnits="userSpaceOnUse">
            <stop offset="0.004" stop-color="#4C99D4"/>
            <stop offset="0.5" stop-color="#56C3E6"/>
            <stop offset="1" stop-color="#B0D8BC"/>
        </linearGradient>
        <linearGradient id="paint1_linear_22866_88709" x1="11.9995" y1="2.84203" x2="11.9995" y2="22.4025" gradientUnits="userSpaceOnUse">
            <stop offset="0.004" stop-color="#4C99D4"/>
            <stop offset="0.5" stop-color="#56C3E6"/>
            <stop offset="1" stop-color="#B0D8BC"/>
        </linearGradient>
        <linearGradient id="paint2_linear_22866_88709" x1="19.8764" y1="2.83729" x2="19.8764" y2="22.3952" gradientUnits="userSpaceOnUse">
            <stop offset="0.004" stop-color="#4C99D4"/>
            <stop offset="0.5" stop-color="#56C3E6"/>
            <stop offset="1" stop-color="#B0D8BC"/>
        </linearGradient>
        <linearGradient id="paint3_linear_22866_88709" x1="11.9996" y1="2.83806" x2="11.9996" y2="22.3925" gradientUnits="userSpaceOnUse">
            <stop offset="0.004" stop-color="#4C99D4"/>
            <stop offset="0.5" stop-color="#56C3E6"/>
            <stop offset="1" stop-color="#B0D8BC"/>
        </linearGradient>
        <linearGradient id="paint4_linear_22866_88709" x1="12.0002" y1="24.5" x2="12.0002" y2="0.5" gradientUnits="userSpaceOnUse">
            <stop stop-color="#B0D8BC"/>
            <stop offset="0.5" stop-color="#56C3E6"/>
            <stop offset="0.996" stop-color="#4C99D4"/>
        </linearGradient>
    </defs>
</svg>