<svg width="31" height="33" viewBox="0 0 31 33" fill="none" xmlns="http://www.w3.org/2000/svg">
    <path d="M28.3914 24.2751C26.4319 27.9765 21.9036 29.7975 17.9641 30.534C17.5328 30.6146 17.0953 30.6803 16.6515 30.7312C16.6737 30.643 16.685 30.5524 16.6853 30.4615V16.8315C20.6398 19.2494 26.3044 19.2494 29.0233 15.0366C30.1333 13.3198 30.5234 11.0487 29.6664 9.14596C29.0195 7.69889 27.6564 7.81049 26.3176 8.0653C25.2064 8.27994 24.1179 8.59689 23.0662 9.01204C20.696 9.94255 18.5303 11.3202 16.689 13.0687V9.1255C16.689 7.76027 14.5514 7.75841 14.5514 9.1255V15.6764C13.3894 14.2217 12.0404 12.9242 10.5388 11.8169C9.5326 11.0712 8.45633 10.4234 7.32488 9.88252C6.16233 9.32452 4.58914 8.56006 3.61972 9.86392C2.92219 10.7939 2.63718 12.122 2.51343 13.2603C2.39036 14.4213 2.49219 15.5949 2.81344 16.718C3.12945 17.8478 3.67326 18.9023 4.41197 19.8176C5.15067 20.7329 6.06891 21.49 7.11112 22.0432C9.37809 23.2224 12.1457 23.4753 14.5552 22.5751V30.4615C14.5548 30.5996 14.5809 30.7366 14.6321 30.8651C11.7744 30.9023 8.89432 30.2922 6.44547 28.8191C4.45788 27.625 2.62593 25.832 2.09341 23.5218C1.7859 22.192 -0.274815 22.7555 0.0308224 24.0798C1.10337 28.7298 6.0442 31.7058 10.4638 32.5837C15.0596 33.5007 19.9123 32.7325 24.1218 30.733C26.6138 29.5501 28.9295 27.8017 30.2346 25.3391C30.8759 24.1394 29.0327 23.0661 28.3914 24.2751ZM22.3518 11.6439C23.9493 10.8367 25.8413 10.1299 27.6432 9.9904C27.6706 9.98941 27.6976 9.98503 27.7239 9.97738V9.9904C27.827 10.102 27.8551 10.3624 27.8926 10.5168C27.9804 10.8776 28.0133 11.2493 27.9901 11.6198C27.9461 12.3254 27.7389 13.0115 27.3845 13.6248C26.9926 14.3188 26.4502 14.9177 25.7964 15.3784C25.1427 15.839 24.3939 16.1498 23.6043 16.2883C21.5942 16.6845 19.4791 16.0428 17.7634 15.0012L17.7353 14.9882C17.7789 14.9562 17.8209 14.9221 17.8609 14.8859C19.1734 13.5739 20.6896 12.4793 22.3518 11.6439ZM14.2139 20.4622C10.8275 21.8404 6.7136 20.4622 5.19854 17.064C4.47749 15.4203 4.40654 13.5677 4.99978 11.8746C5.05976 11.7029 5.12925 11.5346 5.20792 11.3705C5.21729 11.3519 5.23042 11.3296 5.24354 11.3091C5.36917 11.3705 5.69169 11.4635 5.76294 11.4951C6.03483 11.616 6.30484 11.7444 6.5711 11.8671C7.47836 12.323 8.34907 12.8472 9.17558 13.4351C11.0183 14.759 12.5991 16.4084 13.8389 18.3008C13.9162 18.4271 14.0203 18.5351 14.144 18.6174C14.2678 18.6996 14.4081 18.7541 14.5552 18.777V20.4064C14.4386 20.3989 14.3219 20.418 14.2139 20.4622Z" fill="#0EAA4F"/>
    <path d="M5.32009 6.69733C5.85824 7.01725 6.44514 6.77545 6.78265 6.31604C8.72148 3.69159 12.0179 2.22405 15.2524 2.13477C17.0955 2.09547 18.9289 2.41131 20.6507 3.06477C21.4736 3.37083 22.2695 3.74411 23.0302 4.18076C23.4484 4.4207 23.8684 4.66994 24.2621 4.94894C24.4215 5.0624 24.5453 5.1926 24.6953 5.32094C24.7231 5.34168 24.7467 5.36758 24.7647 5.3972C24.7746 5.37237 24.7871 5.34868 24.8022 5.32652C24.7872 5.3507 24.7778 5.37302 24.7647 5.3972C24.729 5.49764 24.8115 5.47718 24.7647 5.3972C24.1478 6.52435 25.9272 7.51945 26.6397 6.39416C28.0292 4.22354 24.5303 2.51793 23.0283 1.79067C20.9065 0.739181 18.5886 0.133814 16.2199 0.0125185C11.8491 -0.173481 7.53643 1.71999 4.93757 5.2391C4.59256 5.7041 4.86257 6.41648 5.32009 6.69733Z" fill="#0EAA4F"/>
</svg>
