<svg width="186" height="161" viewBox="0 0 186 161" fill="none" xmlns="http://www.w3.org/2000/svg">
<path d="M32.8125 90.854V156.682C32.8125 161.063 32.8125 163.254 33.5261 164.983C34.4776 167.287 36.3027 169.118 38.5999 170.072C40.3227 170.788 42.5068 170.788 46.875 170.788C51.2432 170.788 53.4273 170.788 55.1501 170.072C57.4473 169.118 59.2724 167.287 60.2239 164.983C60.9375 163.254 60.9375 161.063 60.9375 156.682V90.854C60.9375 86.4727 60.9375 84.2816 60.2239 82.5531C59.2724 80.2491 57.4473 78.4182 55.1501 77.4637C53.4273 76.7481 51.2432 76.748 46.875 76.748C42.5068 76.748 40.3227 76.7481 38.5999 77.4637C36.3027 78.4182 34.4776 80.2491 33.5261 82.5531C32.8125 84.2816 32.8125 86.4727 32.8125 90.854Z" stroke="#FCF992" stroke-width="1.5" stroke-linecap="square" stroke-linejoin="round"/>
<path d="M98.4375 109.663V156.678C98.4375 161.059 98.4375 163.25 99.1509 164.979C100.103 167.283 101.928 169.114 104.225 170.068C105.948 170.784 108.132 170.784 112.5 170.784C116.868 170.784 119.052 170.784 120.775 170.068C123.072 169.114 124.897 167.283 125.849 164.979C126.562 163.25 126.562 161.059 126.562 156.678V109.663C126.562 105.281 126.562 103.09 125.849 101.362C124.897 99.0577 123.072 97.2268 120.775 96.2723C119.052 95.5566 116.868 95.5566 112.5 95.5566C108.132 95.5566 105.948 95.5566 104.225 96.2723C101.928 97.2268 100.103 99.0577 99.1509 101.362C98.4375 103.09 98.4375 105.281 98.4375 109.663Z" stroke="#FCF992" stroke-width="1.5" stroke-linecap="square" stroke-linejoin="round"/>
<path d="M164.062 72.0474V156.683C164.062 161.064 164.062 163.255 164.776 164.984C165.727 167.288 167.553 169.119 169.85 170.073C171.573 170.789 173.757 170.789 178.125 170.789C182.493 170.789 184.677 170.789 186.4 170.073C188.697 169.119 190.523 167.288 191.474 164.984C192.188 163.255 192.188 161.064 192.188 156.683V72.0474C192.188 67.666 192.188 65.4748 191.474 63.7467C190.523 61.4424 188.697 59.6116 186.4 58.6572C184.677 57.9414 182.493 57.9414 178.125 57.9414C173.757 57.9414 171.573 57.9414 169.85 58.6572C167.553 59.6116 165.727 61.4424 164.776 63.7467C164.062 65.4748 164.062 67.666 164.062 72.0474Z" stroke="#FCF992" stroke-width="1.5" stroke-linecap="square" stroke-linejoin="round"/>
<path d="M60.9375 34.4302C60.9375 42.2207 54.6415 48.5361 46.875 48.5361C39.1085 48.5361 32.8125 42.2207 32.8125 34.4302C32.8125 26.6396 39.1085 20.3242 46.875 20.3242C54.6415 20.3242 60.9375 26.6396 60.9375 34.4302Z" stroke="#FCF992" stroke-width="1.5"/>
<path d="M192.188 15.6235C192.188 23.4141 185.891 29.7295 178.125 29.7295C170.359 29.7295 164.062 23.4141 164.062 15.6235C164.062 7.833 170.359 1.51758 178.125 1.51758C185.891 1.51758 192.188 7.833 192.188 15.6235Z" stroke="#FCF992" stroke-width="1.5"/>
<path d="M126.562 53.2388C126.562 61.0293 120.266 67.3447 112.5 67.3447C104.734 67.3447 98.4375 61.0293 98.4375 53.2388C98.4375 45.4482 104.734 39.1328 112.5 39.1328C120.266 39.1328 126.562 45.4482 126.562 53.2388Z" stroke="#FCF992" stroke-width="1.5"/>
<path d="M60.4102 38.3055L98.9849 49.3611M124.722 46.2375L165.923 22.6211" stroke="#FCF992" stroke-width="1.5"/>
</svg>
