<svg width="1054" height="224" viewBox="0 0 1054 224" fill="none" xmlns="http://www.w3.org/2000/svg">
<g clip-path="url(#clip0_43795_15932)">
<rect width="1054" height="224" rx="12" fill="url(#paint0_linear_43795_15932)"/>
<path d="M900.812 153.854V219.682C900.812 224.063 900.812 226.254 901.526 227.983C902.478 230.287 904.303 232.118 906.6 233.072C908.323 233.788 910.507 233.788 914.875 233.788C919.243 233.788 921.427 233.788 923.15 233.072C925.447 232.118 927.272 230.287 928.224 227.983C928.938 226.254 928.938 224.063 928.938 219.682V153.854C928.938 149.473 928.938 147.282 928.224 145.553C927.272 143.249 925.447 141.418 923.15 140.464C921.427 139.748 919.243 139.748 914.875 139.748C910.507 139.748 908.323 139.748 906.6 140.464C904.303 141.418 902.478 143.249 901.526 145.553C900.812 147.282 900.812 149.473 900.812 153.854Z" stroke="#FCF992" stroke-width="1.5" stroke-linecap="square" stroke-linejoin="round"/>
<path d="M966.438 172.663V219.678C966.438 224.059 966.438 226.25 967.151 227.979C968.103 230.283 969.928 232.114 972.225 233.068C973.948 233.784 976.132 233.784 980.5 233.784C984.868 233.784 987.052 233.784 988.775 233.068C991.072 232.114 992.897 230.283 993.849 227.979C994.562 226.25 994.562 224.059 994.562 219.678V172.663C994.562 168.281 994.562 166.09 993.849 164.362C992.897 162.058 991.072 160.227 988.775 159.272C987.052 158.557 984.868 158.557 980.5 158.557C976.132 158.557 973.948 158.557 972.225 159.272C969.928 160.227 968.103 162.058 967.151 164.362C966.438 166.09 966.438 168.281 966.438 172.663Z" stroke="#FCF992" stroke-width="1.5" stroke-linecap="square" stroke-linejoin="round"/>
<path d="M1032.06 135.047V219.683C1032.06 224.064 1032.06 226.255 1032.78 227.984C1033.73 230.288 1035.55 232.119 1037.85 233.073C1039.57 233.789 1041.76 233.789 1046.12 233.789C1050.49 233.789 1052.68 233.789 1054.4 233.073C1056.7 232.119 1058.52 230.288 1059.47 227.984C1060.19 226.255 1060.19 224.064 1060.19 219.683V135.047C1060.19 130.666 1060.19 128.475 1059.47 126.747C1058.52 124.442 1056.7 122.612 1054.4 121.657C1052.68 120.941 1050.49 120.941 1046.12 120.941C1041.76 120.941 1039.57 120.941 1037.85 121.657C1035.55 122.612 1033.73 124.442 1032.78 126.747C1032.06 128.475 1032.06 130.666 1032.06 135.047Z" stroke="#FCF992" stroke-width="1.5" stroke-linecap="square" stroke-linejoin="round"/>
<path d="M928.938 97.4302C928.938 105.221 922.642 111.536 914.875 111.536C907.108 111.536 900.812 105.221 900.812 97.4302C900.812 89.6396 907.108 83.3242 914.875 83.3242C922.642 83.3242 928.938 89.6396 928.938 97.4302Z" stroke="#FCF992" stroke-width="1.5"/>
<path d="M1060.19 78.6235C1060.19 86.4141 1053.89 92.7295 1046.12 92.7295C1038.36 92.7295 1032.06 86.4141 1032.06 78.6235C1032.06 70.833 1038.36 64.5176 1046.12 64.5176C1053.89 64.5176 1060.19 70.833 1060.19 78.6235Z" stroke="#FCF992" stroke-width="1.5"/>
<path d="M994.562 116.239C994.562 124.029 988.266 130.345 980.5 130.345C972.734 130.345 966.438 124.029 966.438 116.239C966.438 108.448 972.734 102.133 980.5 102.133C988.266 102.133 994.562 108.448 994.562 116.239Z" stroke="#FCF992" stroke-width="1.5"/>
<path d="M928.406 101.305L966.981 112.361M992.718 109.238L1033.92 85.6211" stroke="#FCF992" stroke-width="1.5"/>
</g>
<defs>
<linearGradient id="paint0_linear_43795_15932" x1="0" y1="112" x2="1054" y2="112" gradientUnits="userSpaceOnUse">
<stop stop-color="#142854"/>
<stop offset="1" stop-color="#093086"/>
</linearGradient>
<clipPath id="clip0_43795_15932">
<rect width="1054" height="224" rx="12" fill="white"/>
</clipPath>
</defs>
</svg>
