<svg width="27" height="30" viewBox="0 0 27 30" fill="none" xmlns="http://www.w3.org/2000/svg">
<path d="M25.1012 22.0665C23.3688 25.4314 19.3651 27.0868 15.8819 27.7564C15.5006 27.8297 15.1138 27.8894 14.7215 27.9356C14.7411 27.8554 14.7511 27.7731 14.7513 27.6905V15.2995C18.2477 17.4977 23.256 17.4977 25.6599 13.6678C26.6414 12.1071 26.9862 10.0425 26.2285 8.31271C25.6566 6.99719 24.4513 7.09864 23.2676 7.3303C22.2853 7.52542 21.3229 7.81355 20.3929 8.19097C18.2974 9.03688 16.3826 10.2893 14.7546 11.8788V8.29411C14.7546 7.05299 12.8647 7.0513 12.8647 8.29411V14.2495C11.8372 12.9271 10.6445 11.7475 9.31688 10.7408C8.42728 10.0629 7.4757 9.47403 6.47534 8.98231C5.44747 8.47504 4.05654 7.78008 3.19943 8.9654C2.58272 9.81085 2.33072 11.0182 2.22131 12.053C2.1125 13.1085 2.20253 14.1754 2.48656 15.1964C2.76596 16.2235 3.24677 17.1821 3.8999 18.0142C4.55302 18.8463 5.36488 19.5346 6.28634 20.0374C8.29067 21.1095 10.7377 21.3394 12.868 20.521V27.6905C12.8677 27.8161 12.8907 27.9406 12.936 28.0574C10.4094 28.0912 7.86295 27.5366 5.69781 26.1974C3.94049 25.1118 2.32078 23.4818 1.84995 21.3817C1.57806 20.1727 -0.243908 20.685 0.0263207 21.889C0.974608 26.1162 5.34303 28.8217 9.25057 29.6198C13.3139 30.4534 17.6044 29.7551 21.3263 27.9373C23.5296 26.8619 25.577 25.2725 26.7309 23.0337C27.2979 21.9431 25.6682 20.9674 25.1012 22.0665ZM19.7613 10.5836C21.1738 9.84974 22.8465 9.2072 24.4397 9.08038C24.4639 9.07948 24.4878 9.0755 24.511 9.06855V9.08038C24.6022 9.18184 24.6271 9.41856 24.6602 9.55891C24.7378 9.88689 24.7669 10.2249 24.7464 10.5616C24.7075 11.2031 24.5243 11.8268 24.211 12.3844C23.8645 13.0153 23.3849 13.5598 22.8069 13.9785C22.2289 14.3973 21.5669 14.6798 20.8687 14.8058C19.0915 15.1659 17.2215 14.5826 15.7046 13.6357L15.6797 13.6238C15.7182 13.5948 15.7553 13.5637 15.7908 13.5308C16.9512 12.3381 18.2917 11.343 19.7613 10.5836ZM12.5663 18.6002C9.57219 19.8531 5.93488 18.6002 4.59534 15.5109C3.95783 14.0167 3.89509 12.3325 4.41961 10.7933C4.47264 10.6372 4.53407 10.4842 4.60363 10.335C4.61192 10.3181 4.62352 10.2978 4.63513 10.2792C4.7462 10.335 5.03135 10.4196 5.09435 10.4483C5.33474 10.5582 5.57347 10.6749 5.80888 10.7865C6.61104 11.201 7.38087 11.6775 8.11163 12.2119C9.74083 13.4154 11.1385 14.915 12.2347 16.6353C12.303 16.7501 12.3951 16.8483 12.5045 16.9231C12.6139 16.9979 12.7379 17.0474 12.868 17.0682V18.5494C12.7649 18.5426 12.6617 18.56 12.5663 18.6002Z" fill="#0EAA4F"/>
<path d="M4.70325 6.08653C5.17905 6.37737 5.69796 6.15755 5.99637 5.7399C7.71058 3.35403 10.6251 2.01991 13.4848 1.93875C15.1145 1.90302 16.7354 2.19014 18.2578 2.7842C18.9854 3.06243 19.689 3.40178 20.3616 3.79874C20.7313 4.01687 21.1026 4.24345 21.4508 4.49708C21.5917 4.60023 21.7011 4.71859 21.8338 4.83526C21.8584 4.85412 21.8792 4.87766 21.8951 4.90459C21.9039 4.88202 21.915 4.86048 21.9282 4.84034C21.915 4.86232 21.9067 4.88261 21.8951 4.90459C21.8636 4.9959 21.9365 4.9773 21.8951 4.90459C21.3497 5.92928 22.923 6.83391 23.5529 5.81092C24.7814 3.83763 21.6879 2.28707 20.3599 1.62593C18.4839 0.67003 16.4346 0.119696 14.3403 0.00942732C10.4759 -0.159663 6.66282 1.56168 4.36505 4.76086C4.06001 5.18359 4.29874 5.83121 4.70325 6.08653Z" fill="#0EAA4F"/>
</svg>
