<svg width="70" height="70" viewBox="0 0 70 70" fill="none" xmlns="http://www.w3.org/2000/svg">
<circle cx="35" cy="35" r="35" fill="#FEF6E8"/>
<circle cx="35.5" cy="34.5" r="27.5" fill="#FBE2B7"/>
<circle cx="36" cy="34" r="20" fill="#F3A218"/>
<path d="M35 29H37V31H35V29ZM35 33H37V39H35V33ZM36 24C30.48 24 26 28.48 26 34C26 39.52 30.48 44 36 44C41.52 44 46 39.52 46 34C46 28.48 41.52 24 36 24ZM36 42C31.59 42 28 38.41 28 34C28 29.59 31.59 26 36 26C40.41 26 44 29.59 44 34C44 38.41 40.41 42 36 42Z" fill="white"/>
</svg>
