<svg width="124" height="24" viewBox="0 0 124 24" fill="none" xmlns="http://www.w3.org/2000/svg">
    <path d="M0.273438 18.3517V0.659454H2.97355V16.2295H11.0758V18.3517H0.273438Z" fill="#0EAA4F"/>
    <path d="M17.7251 18.6568C16.5711 18.6778 15.4321 18.3941 14.425 17.8347C13.4742 17.2956 12.6947 16.5031 12.1749 15.5469C11.6134 14.4977 11.3326 13.3232 11.3592 12.1357C11.3322 10.933 11.608 9.7426 12.1618 8.67235C12.6752 7.70197 13.4554 6.89582 14.4119 6.34735C15.4294 5.77691 16.5828 5.48846 17.7514 5.51222C18.8853 5.48553 20.0046 5.77003 20.9859 6.33433C21.8831 6.86159 22.6222 7.61665 23.1272 8.52169C23.6386 9.44227 23.9014 10.4783 23.8904 11.5293C23.8904 11.6967 23.8904 11.879 23.8791 12.0724C23.8679 12.2659 23.8566 12.4798 23.8398 12.716H14.0012C14.0862 13.9287 14.4894 14.8512 15.2107 15.4836C15.897 16.1027 16.7938 16.4415 17.7214 16.4322C18.4007 16.4554 19.0712 16.2745 19.6452 15.9133C20.1645 15.5683 20.5691 15.0783 20.8078 14.5053H23.5098C23.1712 15.6812 22.4606 16.718 21.4828 17.4627C20.4727 18.2587 19.2202 18.6568 17.7251 18.6568ZM17.7251 7.71259C16.859 7.70052 16.0145 7.98128 15.3307 8.50867C14.6331 9.03814 14.2081 9.83422 14.0556 10.8969H21.1809C21.1309 9.92102 20.7828 9.14602 20.1365 8.57191C19.4711 7.99333 18.6095 7.68629 17.7251 7.71259Z" fill="#0EAA4F"/>
    <path d="M29.4464 18.6574C28.3763 18.6574 27.4932 18.4801 26.7969 18.1255C26.1517 17.8187 25.6113 17.3312 25.2425 16.723C24.9023 16.1441 24.7261 15.4847 24.7324 14.8147C24.7134 14.2551 24.8336 13.6995 25.0825 13.197C25.3313 12.6945 25.7012 12.2605 26.1594 11.9335C27.1107 11.2267 28.4695 10.8727 30.2358 10.8715H33.5491V10.6446C33.5491 9.66868 33.2809 8.93585 32.7446 8.44605C32.1747 7.94412 31.4304 7.68137 30.6689 7.71321C29.9788 7.69675 29.2995 7.88594 28.7188 8.25633C28.4458 8.43622 28.2148 8.67208 28.0415 8.94801C27.8681 9.22394 27.7564 9.53354 27.7138 9.85592H25.0118C25.0776 9.00021 25.4047 8.18468 25.9494 7.51791C26.4953 6.86342 27.1953 6.35237 27.9876 6.02992C28.8441 5.6793 29.763 5.50345 30.6896 5.51284C32.4559 5.51284 33.8228 5.97226 34.7904 6.89109C35.7579 7.80993 36.2423 9.06108 36.2435 10.6446V18.3524H33.8997L33.6691 16.2041C33.3056 16.9045 32.772 17.5041 32.1165 17.9488C31.4402 18.4212 30.5502 18.6574 29.4464 18.6574ZM29.9808 16.4831C30.6358 16.5047 31.2814 16.3233 31.8277 15.9641C32.3331 15.615 32.7372 15.1404 32.9997 14.5877C33.2871 13.9922 33.4643 13.3502 33.5228 12.6924H30.5227C29.4539 12.6924 28.6939 12.8784 28.2426 13.2504C28.0295 13.4145 27.8576 13.6254 27.7405 13.8665C27.6234 14.1075 27.5642 14.3722 27.5676 14.6398C27.5574 14.9006 27.6114 15.16 27.7247 15.3955C27.8381 15.6311 28.0074 15.8358 28.2182 15.992C28.647 16.3206 29.2345 16.4843 29.9808 16.4831Z" fill="#0EAA4F"/>
    <path d="M37.8789 18.3524V5.81788H40.2996L40.5303 8.19309C40.9544 7.3854 41.5931 6.70812 42.3772 6.23451C43.2463 5.73332 44.2394 5.48334 45.2442 5.51284V8.31957H44.5036C43.8189 8.30991 43.1393 8.4364 42.5047 8.69156C41.9125 8.94011 41.4195 9.37553 41.1022 9.93032C40.7559 10.5106 40.5821 11.3166 40.5809 12.3483V18.3635L37.8789 18.3524Z" fill="#0EAA4F"/>
    <path d="M46.0332 18.4287V5.89419H48.4277L48.6321 8.0927C49.0122 7.32829 49.61 6.69129 50.3515 6.26061C51.1438 5.80388 52.0473 5.57163 52.9635 5.58915C54.4911 5.58915 55.6924 6.06097 56.5674 7.0046C57.4425 7.94824 57.88 9.35563 57.88 11.2268V18.4287H55.2061V11.5039C55.2061 9.0785 54.2061 7.86516 52.206 7.86392C51.739 7.85204 51.2751 7.94085 50.8461 8.12422C50.4172 8.30759 50.0335 8.58114 49.7215 8.92598C49.0677 9.63525 48.7408 10.6465 48.7408 11.9596V18.4287H46.0332Z" fill="#0EAA4F"/>
    <path d="M71.0527 23.9144V5.81857H73.4735L73.7547 7.76412C74.2054 7.13433 74.7793 6.60106 75.4423 6.19615C76.1548 5.74231 77.0718 5.51477 78.193 5.51353C79.3319 5.49179 80.4538 5.78967 81.4294 6.37285C82.3629 6.94661 83.1238 7.75858 83.6327 8.72388C84.1805 9.76892 84.4564 10.9332 84.4352 12.1109C84.4576 13.2846 84.1816 14.445 83.6327 15.485C83.124 16.4435 82.3625 17.2471 81.4294 17.8099C80.4437 18.3891 79.3141 18.6829 78.1687 18.6581C77.2634 18.6758 76.3673 18.4761 75.5567 18.0759C74.8167 17.7032 74.195 17.1348 73.7604 16.4335V23.9144H71.0527ZM77.7036 16.3312C78.2376 16.3486 78.7691 16.253 79.2628 16.0506C79.7565 15.8482 80.2011 15.5438 80.5669 15.1576C81.3169 14.3727 81.6919 13.3491 81.6919 12.0867C81.7061 11.3229 81.531 10.5673 81.1819 9.88637C80.8595 9.25438 80.3625 8.72641 79.7489 8.36412C79.1354 8.00184 78.4305 7.82019 77.7168 7.84038C77.1851 7.82409 76.6562 7.92166 76.1659 8.12644C75.6757 8.33122 75.2358 8.6384 74.876 9.02706C74.1372 9.81941 73.7678 10.8393 73.7678 12.0867C73.7678 13.3342 74.1372 14.3578 74.876 15.1576C75.2361 15.5414 75.6746 15.8447 76.1622 16.0471C76.6498 16.2494 77.1753 16.3463 77.7036 16.3312Z" fill="#0EAA4F"/>
    <path d="M90.1143 18.6574C89.0443 18.6574 88.1605 18.4801 87.463 18.1255C86.8185 17.8177 86.2783 17.3304 85.9085 16.723C85.5699 16.1436 85.3944 15.4845 85.4004 14.8147C85.3813 14.2551 85.5015 13.6995 85.7504 13.197C85.9993 12.6945 86.3692 12.2605 86.8273 11.9335C87.7786 11.2267 89.1374 10.8727 90.9038 10.8715H94.2152V10.6446C94.2152 9.66869 93.9476 8.93586 93.4126 8.44606C92.8426 7.94413 92.0984 7.68138 91.3369 7.71322C90.6448 7.69564 89.9634 7.88487 89.3812 8.25634C89.1092 8.4368 88.8793 8.67291 88.7069 8.94881C88.5345 9.22471 88.4237 9.53401 88.3818 9.85593H85.6798C85.7448 9.00003 86.0719 8.18427 86.6173 7.51792C87.1632 6.86343 87.8633 6.35239 88.6555 6.02993C89.5154 5.67715 90.4383 5.50063 91.3688 5.51099C93.1376 5.51099 94.5052 5.97041 95.4715 6.88925C96.4377 7.80808 96.9221 9.05924 96.9246 10.6427V18.3505H94.5808L94.3502 16.2022C93.9865 16.9031 93.4522 17.5028 92.7957 17.9469C92.1119 18.4206 91.2181 18.6574 90.1143 18.6574ZM90.6487 16.4831C91.3038 16.5047 91.9494 16.3233 92.4957 15.9642C93.0011 15.615 93.4052 15.1404 93.6676 14.5878C93.9543 13.9919 94.1314 13.35 94.1908 12.6924H91.1906C90.1219 12.6924 89.3618 12.8784 88.9105 13.2504C88.6975 13.4145 88.5256 13.6254 88.4085 13.8665C88.2914 14.1075 88.2322 14.3723 88.2355 14.6398C88.2249 14.9007 88.2786 15.1602 88.392 15.3959C88.5054 15.6315 88.675 15.8362 88.8862 15.9921C89.3149 16.3207 89.9025 16.4843 90.6487 16.4831Z" fill="#0EAA4F"/>
    <path d="M104.534 18.6579C103.37 18.6771 102.222 18.3889 101.208 17.8228C100.242 17.2776 99.4483 16.4772 98.9144 15.5108C98.3472 14.4594 98.0624 13.2807 98.0875 12.0884C98.0618 10.8949 98.3466 9.7149 98.9144 8.66232C99.4483 7.69594 100.242 6.89556 101.208 6.35035C102.222 5.78428 103.37 5.49605 104.534 5.51521C106.095 5.51521 107.408 5.92007 108.472 6.72978C109.535 7.5413 110.264 8.70886 110.523 10.0145H107.694C107.542 9.35224 107.139 8.77334 106.568 8.3982C105.993 8.03304 105.327 7.83147 104.643 7.8154C103.96 7.79933 103.285 7.96938 102.693 8.30706C102.116 8.65307 101.648 9.15242 101.343 9.74855C100.983 10.4754 100.81 11.2792 100.838 12.0884C100.812 12.8969 100.987 13.6994 101.348 14.4246C101.656 15.0229 102.123 15.526 102.698 15.8791C103.251 16.2139 103.887 16.3891 104.534 16.385C105.257 16.4024 105.968 16.2013 106.572 15.8084C107.148 15.4264 107.551 14.8375 107.697 14.166H110.525C110.269 15.4629 109.544 16.6224 108.487 17.4266C107.414 18.2475 106.097 18.6579 104.534 18.6579Z" fill="#0EAA4F"/>
    <path d="M117.835 18.6568C116.68 18.6781 115.541 18.3943 114.534 17.8347C113.584 17.2957 112.804 16.5031 112.284 15.5469C111.722 14.4981 111.441 13.3233 111.469 12.1357C111.442 10.933 111.717 9.74263 112.271 8.67238C112.785 7.70224 113.565 6.89617 114.521 6.34738C115.542 5.77543 116.7 5.48694 117.872 5.51225C119.007 5.48531 120.127 5.76982 121.108 6.33436C122.006 6.86162 122.745 7.61668 123.25 8.52172C123.757 9.44353 124.015 10.4795 124 11.5293C124 11.6967 124 11.879 123.987 12.0724C123.974 12.2659 123.966 12.4798 123.949 12.716H114.114C114.199 13.9287 114.603 14.8513 115.324 15.4837C116.01 16.1027 116.907 16.4415 117.835 16.4323C118.513 16.455 119.183 16.2742 119.757 15.9133C120.274 15.5692 120.677 15.0814 120.915 14.5109H123.615C123.278 15.6869 122.568 16.7239 121.59 17.4683C120.582 18.2606 119.33 18.6568 117.835 18.6568ZM117.835 7.71262C116.97 7.70213 116.127 7.98277 115.444 8.5087C114.748 9.03817 114.323 9.83425 114.171 10.8969H121.305C121.255 9.92105 120.907 9.14605 120.261 8.57194C119.592 7.9898 118.724 7.68251 117.835 7.71262Z" fill="#0EAA4F"/>
    <path d="M64.9298 18.4291C63.3289 18.4291 62.0098 17.9067 60.9725 16.8618C60.4721 16.3771 60.0541 15.757 59.7462 15.042C59.4382 14.327 59.2472 13.5334 59.1855 12.7131H61.9177C62.0604 13.5083 62.4025 14.2149 62.8873 14.7161C63.3984 15.2719 64.0705 15.549 64.9035 15.5473C65.7366 15.5457 66.3329 15.3195 66.6924 14.8688C66.8658 14.678 67.0061 14.4392 67.1034 14.169C67.2008 13.8988 67.2529 13.6037 67.2561 13.304C67.2561 12.4402 66.9949 11.8568 66.4763 11.5514C65.7805 11.1759 65.0577 10.8965 64.3191 10.7176C63.5952 10.51 62.8827 10.2373 62.1864 9.90143C61.5261 9.59936 60.9246 9.10499 60.4257 8.45427C59.9522 7.82334 59.7154 6.97457 59.7154 5.90798C59.7068 5.20473 59.817 4.50789 60.0378 3.86906C60.2587 3.23023 60.5846 2.66577 60.9913 2.2175C61.8419 1.22936 63.032 0.735291 64.5615 0.735291C65.9746 0.735291 67.1189 1.1893 67.9946 2.09732C68.8702 3.00533 69.3857 4.28724 69.541 5.94304H66.9479C66.9158 5.60617 66.8327 5.28152 66.7035 4.98884C66.5742 4.69615 66.4017 4.44154 66.1963 4.24051C65.7792 3.83156 65.2217 3.62793 64.524 3.6296C63.8419 3.6296 63.3138 3.81487 62.9399 4.19043C62.7642 4.35109 62.6208 4.56692 62.5225 4.81887C62.4242 5.07081 62.374 5.35113 62.3762 5.63508C62.3762 6.22596 62.6355 6.68915 63.156 7.02965C63.8144 7.43369 64.5036 7.74177 65.2117 7.94852C66.0097 8.18025 66.7976 8.47029 67.5718 8.81731C68.2364 9.09652 68.8378 9.5932 69.3212 10.262C69.7646 10.8979 69.9864 11.8285 69.9864 13.0536C70.0028 13.7892 69.8901 14.5197 69.6572 15.1869C69.4242 15.8542 69.0775 16.4397 68.6447 16.8968C67.7328 17.9184 66.4945 18.4291 64.9298 18.4291Z" fill="#0EAA4F"/>
</svg>