<svg width="145" height="30" viewBox="0 0 145 30" fill="none" xmlns="http://www.w3.org/2000/svg">
<g clip-path="url(#clip0_22849_87668)">
<path d="M35.6074 23.9562V7.87231H37.9947V22.0269H45.1583V23.9562H35.6074Z" fill="#0EAA4F"/>
<path d="M51.0382 24.2334C50.0178 24.2525 49.0108 23.9946 48.1204 23.486C47.2797 22.996 46.5905 22.2755 46.131 21.4062C45.6345 20.4524 45.3862 19.3847 45.4098 18.3051C45.3859 17.2117 45.6298 16.1296 46.1194 15.1566C46.5733 14.2745 47.2631 13.5416 48.1088 13.043C49.0084 12.5244 50.0282 12.2622 51.0614 12.2838C52.064 12.2595 53.0536 12.5182 53.9212 13.0312C54.7144 13.5105 55.368 14.1969 55.8144 15.0197C56.2665 15.8566 56.4989 16.7984 56.4892 17.7539C56.4892 17.906 56.4892 18.0717 56.4792 18.2476C56.4693 18.4235 56.4593 18.6179 56.4444 18.8327H47.7457C47.8209 19.9351 48.1773 20.7738 48.815 21.3487C49.4218 21.9115 50.2148 22.2195 51.0349 22.2111C51.6355 22.2321 52.2284 22.0677 52.7358 21.7393C53.195 21.4257 53.5527 20.9802 53.7637 20.4593H56.1526C55.8533 21.5283 55.2251 22.4708 54.3605 23.1478C53.4675 23.8715 52.36 24.2334 51.0382 24.2334ZM51.0382 14.2841C50.2724 14.2732 49.5258 14.5284 48.9211 15.0078C48.3044 15.4892 47.9286 16.2129 47.7938 17.179H54.0936C54.0494 16.2918 53.7416 15.5872 53.1702 15.0653C52.5819 14.5393 51.8201 14.2602 51.0382 14.2841Z" fill="#0EAA4F"/>
<path d="M61.402 24.2341C60.4559 24.2341 59.6751 24.0729 59.0594 23.7505C58.489 23.4717 58.0112 23.0284 57.6851 22.4756C57.3843 21.9493 57.2285 21.3499 57.2342 20.7407C57.2173 20.232 57.3236 19.7269 57.5436 19.2701C57.7637 18.8133 58.0907 18.4188 58.4958 18.1215C59.3369 17.479 60.5382 17.1571 62.0999 17.156H65.0293V16.9497C65.0293 16.0625 64.7923 15.3963 64.3181 14.9511C63.8142 14.4948 63.1562 14.2559 62.4829 14.2848C61.8727 14.2699 61.2721 14.4419 60.7587 14.7786C60.5173 14.9421 60.3131 15.1565 60.1598 15.4074C60.0065 15.6582 59.9078 15.9397 59.8701 16.2328H57.4812C57.5394 15.4548 57.8285 14.7134 58.3101 14.1073C58.7928 13.5123 59.4117 13.0477 60.1122 12.7546C60.8695 12.4358 61.6819 12.276 62.5011 12.2845C64.0628 12.2845 65.2714 12.7022 66.1268 13.5375C66.9823 14.3728 67.4106 15.5102 67.4117 16.9497V23.9568H65.3394L65.1355 22.0038C64.8141 22.6405 64.3423 23.1856 63.7627 23.5899C63.1648 24.0194 62.3779 24.2341 61.402 24.2341ZM61.8745 22.2574C62.4536 22.2771 63.0244 22.1122 63.5074 21.7857C63.9543 21.4683 64.3116 21.0368 64.5436 20.5344C64.7978 19.993 64.9544 19.4094 65.0061 18.8114H62.3536C61.4086 18.8114 60.7366 18.9805 60.3376 19.3187C60.1492 19.4678 59.9973 19.6595 59.8937 19.8787C59.7902 20.0979 59.7378 20.3385 59.7408 20.5818C59.7319 20.8189 59.7796 21.0546 59.8798 21.2688C59.98 21.4829 60.1297 21.669 60.3161 21.8111C60.6952 22.1098 61.2146 22.2586 61.8745 22.2574Z" fill="#0EAA4F"/>
<path d="M68.8564 23.9567V12.5617H70.9967L71.2006 14.7209C71.5756 13.9867 72.1403 13.371 72.8336 12.9404C73.602 12.4848 74.48 12.2575 75.3685 12.2844V14.8359H74.7136C74.1083 14.8271 73.5074 14.9421 72.9464 15.1741C72.4227 15.4001 71.9869 15.7959 71.7063 16.3002C71.4001 16.8278 71.2465 17.5605 71.2454 18.4984V23.9668L68.8564 23.9567Z" fill="#0EAA4F"/>
<path d="M76.0664 24.0262V12.6312H78.1835L78.3642 14.6298C78.7003 13.9349 79.2288 13.3558 79.8844 12.9643C80.5849 12.5491 81.3838 12.3379 82.1938 12.3539C83.5444 12.3539 84.6065 12.7828 85.3802 13.6406C86.1539 14.4985 86.5407 15.7779 86.5407 17.479V24.0262H84.1766V17.7309C84.1766 15.526 83.2924 14.423 81.524 14.4218C81.1112 14.411 80.701 14.4918 80.3217 14.6585C79.9425 14.8252 79.6032 15.0739 79.3274 15.3873C78.7494 16.0321 78.4603 16.9514 78.4603 18.1452V24.0262H76.0664Z" fill="#0EAA4F"/>
<path d="M98.1875 29.013V12.5623H100.328L100.576 14.3309C100.975 13.7584 101.482 13.2736 102.069 12.9055C102.698 12.4929 103.509 12.2861 104.501 12.2849C105.508 12.2652 106.499 12.536 107.362 13.0661C108.187 13.5877 108.86 14.3259 109.31 15.2034C109.794 16.1535 110.038 17.2119 110.02 18.2826C110.039 19.3496 109.795 20.4045 109.31 21.3499C108.86 22.2213 108.187 22.9519 107.362 23.4635C106.49 23.99 105.492 24.2571 104.479 24.2346C103.679 24.2507 102.886 24.0691 102.17 23.7053C101.515 23.3665 100.966 22.8498 100.581 22.2122V29.013H98.1875ZM104.068 22.1192C104.54 22.135 105.01 22.0481 105.446 21.8641C105.883 21.6801 106.276 21.4034 106.599 21.0523C107.263 20.3387 107.594 19.4082 107.594 18.2606C107.607 17.5662 107.452 16.8793 107.143 16.2603C106.858 15.6857 106.419 15.2057 105.876 14.8764C105.334 14.547 104.711 14.3819 104.079 14.4003C103.609 14.3855 103.142 14.4742 102.708 14.6603C102.275 14.8465 101.886 15.1257 101.568 15.4791C100.915 16.1994 100.588 17.1266 100.588 18.2606C100.588 19.3946 100.915 20.3252 101.568 21.0523C101.886 21.4012 102.274 21.6769 102.705 21.8609C103.136 22.0449 103.601 22.1329 104.068 22.1192Z" fill="#0EAA4F"/>
<path d="M114.909 24.679C113.963 24.679 113.181 24.5178 112.565 24.1954C111.995 23.9156 111.517 23.4726 111.19 22.9205C110.891 22.3937 110.736 21.7945 110.741 21.1856C110.724 20.6769 110.83 20.1718 111.05 19.715C111.271 19.2581 111.598 18.8636 112.003 18.5664C112.844 17.9238 114.045 17.602 115.607 17.6009H118.535V17.3946C118.535 16.5074 118.298 15.8412 117.825 15.3959C117.321 14.9396 116.663 14.7008 115.99 14.7297C115.378 14.7137 114.775 14.8858 114.261 15.2235C114.02 15.3875 113.817 15.6022 113.664 15.853C113.512 16.1038 113.414 16.385 113.377 16.6776H110.988C111.045 15.8995 111.335 15.1579 111.817 14.5522C112.3 13.9572 112.919 13.4926 113.619 13.1994C114.379 12.8787 115.195 12.7183 116.018 12.7277C117.582 12.7277 118.791 13.1453 119.645 13.9806C120.5 14.816 120.928 15.9534 120.93 17.3929V24.4H118.858L118.654 22.447C118.332 23.0841 117.86 23.6293 117.28 24.0331C116.675 24.4637 115.885 24.679 114.909 24.679ZM115.381 22.7023C115.96 22.722 116.531 22.5571 117.014 22.2306C117.461 21.9132 117.818 21.4817 118.05 20.9793C118.304 20.4376 118.461 19.8541 118.513 19.2563H115.86C114.915 19.2563 114.243 19.4254 113.844 19.7635C113.656 19.9127 113.504 20.1044 113.401 20.3236C113.297 20.5427 113.245 20.7834 113.248 21.0266C113.238 21.2638 113.286 21.4997 113.386 21.7139C113.486 21.9282 113.636 22.1142 113.823 22.2559C114.202 22.5547 114.721 22.7035 115.381 22.7023Z" fill="#0EAA4F"/>
<path d="M127.79 24.2344C126.761 24.2518 125.746 23.9898 124.849 23.4752C123.995 22.9795 123.293 22.2519 122.821 21.3734C122.32 20.4175 122.068 19.346 122.09 18.2621C122.068 17.1771 122.319 16.1044 122.821 15.1475C123.293 14.2689 123.995 13.5413 124.849 13.0457C125.746 12.5311 126.761 12.269 127.79 12.2865C129.17 12.2865 130.331 12.6545 131.271 13.3906C132.211 14.1284 132.856 15.1898 133.085 16.3768H130.583C130.45 15.7747 130.093 15.2484 129.589 14.9074C129.079 14.5754 128.491 14.3921 127.887 14.3775C127.283 14.3629 126.686 14.5175 126.162 14.8245C125.652 15.1391 125.238 15.593 124.968 16.135C124.65 16.7957 124.497 17.5264 124.522 18.2621C124.499 18.9971 124.654 19.7266 124.973 20.3859C125.245 20.9298 125.658 21.3872 126.167 21.7082C126.655 22.0126 127.218 22.1718 127.79 22.1681C128.429 22.1839 129.057 22.0011 129.592 21.6439C130.101 21.2966 130.458 20.7613 130.587 20.1508H133.087C132.86 21.3298 132.219 22.3839 131.285 23.115C130.336 23.8613 129.171 24.2344 127.79 24.2344Z" fill="#0EAA4F"/>
<path d="M139.549 24.2334C138.529 24.2528 137.522 23.9948 136.631 23.486C135.791 22.996 135.101 22.2755 134.642 21.4062C134.145 20.4527 133.896 19.3848 133.921 18.3051C133.897 17.2118 134.141 16.1296 134.63 15.1567C135.084 14.2747 135.774 13.5419 136.62 13.043C137.522 12.5231 138.546 12.2608 139.582 12.2838C140.585 12.2593 141.575 12.518 142.444 13.0312C143.237 13.5105 143.89 14.1969 144.337 15.0197C144.785 15.8577 145.013 16.7995 145 17.7539C145 17.9061 145 18.0718 144.988 18.2476C144.977 18.4235 144.97 18.6179 144.955 18.8327H136.26C136.335 19.9352 136.691 20.7738 137.329 21.3487C137.936 21.9115 138.729 22.2195 139.549 22.2111C140.149 22.2318 140.741 22.0674 141.248 21.7393C141.705 21.4265 142.062 20.983 142.273 20.4644H144.66C144.362 21.5335 143.734 22.4763 142.87 23.1529C141.978 23.8733 140.871 24.2334 139.549 24.2334ZM139.549 14.2842C138.784 14.2746 138.039 14.5297 137.435 15.0079C136.82 15.4892 136.444 16.2129 136.31 17.179H142.618C142.573 16.2918 142.266 15.5873 141.694 15.0654C141.103 14.5361 140.335 14.2568 139.549 14.2842Z" fill="#0EAA4F"/>
<path d="M25.1012 22.0665C23.3687 25.4314 19.365 27.0868 15.8819 27.7564C15.5006 27.8297 15.1138 27.8894 14.7214 27.9356C14.741 27.8554 14.751 27.7731 14.7512 27.6905V15.2995C18.2476 17.4977 23.256 17.4977 25.6599 13.6678C26.6413 12.1071 26.9861 10.0425 26.2285 8.31271C25.6565 6.99719 24.4513 7.09864 23.2676 7.3303C22.2852 7.52542 21.3228 7.81355 20.3929 8.19097C18.2974 9.03688 16.3826 10.2893 14.7546 11.8788V8.29411C14.7546 7.05299 12.8646 7.0513 12.8646 8.29411V14.2495C11.8372 12.9271 10.6445 11.7475 9.31683 10.7408C8.42724 10.0629 7.47566 9.47403 6.47529 8.98231C5.44743 8.47504 4.05649 7.78008 3.19939 8.9654C2.58267 9.81085 2.33068 11.0182 2.22126 12.053C2.11245 13.1085 2.20248 14.1754 2.48652 15.1964C2.76592 16.2235 3.24673 17.1821 3.89985 18.0142C4.55297 18.8463 5.36483 19.5346 6.28629 20.0374C8.29063 21.1095 10.7376 21.3394 12.8679 20.521V27.6905C12.8676 27.8161 12.8907 27.9406 12.9359 28.0574C10.4094 28.0912 7.8629 27.5366 5.69776 26.1974C3.94044 25.1118 2.32073 23.4818 1.8499 21.3817C1.57802 20.1727 -0.243954 20.685 0.0262749 21.889C0.974562 26.1162 5.34298 28.8217 9.25052 29.6198C13.3139 30.4534 17.6044 29.7551 21.3263 27.9373C23.5295 26.8619 25.577 25.2725 26.7308 23.0337C27.2978 21.9431 25.6682 20.9674 25.1012 22.0665ZM19.7613 10.5836C21.1737 9.84974 22.8465 9.2072 24.4397 9.08038C24.4638 9.07948 24.4878 9.0755 24.511 9.06855V9.08038C24.6022 9.18184 24.627 9.41856 24.6602 9.55891C24.7378 9.88689 24.7669 10.2249 24.7464 10.5616C24.7075 11.2031 24.5243 11.8268 24.2109 12.3844C23.8644 13.0153 23.3848 13.5598 22.8068 13.9785C22.2288 14.3973 21.5668 14.6798 20.8687 14.8058C19.0915 15.1659 17.2214 14.5826 15.7045 13.6357L15.6796 13.6238C15.7182 13.5948 15.7553 13.5637 15.7907 13.5308C16.9511 12.3381 18.2917 11.343 19.7613 10.5836ZM12.5662 18.6002C9.57214 19.8531 5.93483 18.6002 4.59529 15.5109C3.95778 14.0167 3.89505 12.3325 4.41956 10.7933C4.47259 10.6372 4.53403 10.4842 4.60358 10.335C4.61187 10.3181 4.62348 10.2978 4.63508 10.2792C4.74616 10.335 5.03131 10.4196 5.09431 10.4483C5.33469 10.5582 5.57342 10.6749 5.80884 10.7865C6.61099 11.201 7.38083 11.6775 8.11158 12.2119C9.74079 13.4154 11.1385 14.915 12.2346 16.6353C12.303 16.7501 12.3951 16.8483 12.5044 16.9231C12.6138 16.9979 12.7379 17.0474 12.8679 17.0682V18.5494C12.7649 18.5426 12.6617 18.56 12.5662 18.6002Z" fill="#0EAA4F"/>
<path d="M4.70298 6.08653C5.17878 6.37737 5.69768 6.15755 5.99609 5.7399C7.7103 3.35403 10.6248 2.01991 13.4846 1.93875C15.1142 1.90302 16.7351 2.19014 18.2575 2.7842C18.9851 3.06243 19.6888 3.40178 20.3613 3.79874C20.731 4.01687 21.1024 4.24345 21.4505 4.49708C21.5914 4.60023 21.7008 4.71859 21.8335 4.83526C21.8581 4.85412 21.8789 4.87766 21.8948 4.90459C21.9036 4.88202 21.9147 4.86048 21.928 4.84034C21.9147 4.86232 21.9064 4.88261 21.8948 4.90459C21.8633 4.9959 21.9363 4.9773 21.8948 4.90459C21.3494 5.92928 22.9227 6.83391 23.5527 5.81092C24.7811 3.83763 21.6876 2.28707 20.3597 1.62593C18.4837 0.67003 16.4343 0.119696 14.34 0.00942732C10.4756 -0.159663 6.66255 1.56168 4.36478 4.76086C4.05973 5.18359 4.29846 5.83121 4.70298 6.08653Z" fill="#0EAA4F"/>
<path d="M92.5703 24.0043C91.0181 24.0043 89.7392 23.6515 88.7335 22.9457C88.2483 22.6183 87.8431 22.1994 87.5445 21.7165C87.2459 21.2335 87.0607 20.6974 87.001 20.1434H89.6499C89.7883 20.6805 90.1199 21.1578 90.59 21.4963C91.0855 21.8718 91.7371 22.0589 92.5448 22.0578C93.3524 22.0567 93.9306 21.9039 94.2791 21.5995C94.4473 21.4706 94.5833 21.3093 94.6776 21.1268C94.772 20.9443 94.8225 20.7449 94.8257 20.5425C94.8257 19.959 94.5724 19.565 94.0696 19.3587C93.395 19.105 92.6942 18.9163 91.9782 18.7955C91.2763 18.6552 90.5855 18.471 89.9104 18.2442C89.2702 18.0401 88.6871 17.7062 88.2034 17.2667C87.7443 16.8405 87.5147 16.2672 87.5147 15.5467C87.5063 15.0717 87.6132 14.601 87.8273 14.1695C88.0414 13.738 88.3574 13.3567 88.7517 13.0539C89.5764 12.3865 90.7302 12.0527 92.2132 12.0527C93.5832 12.0527 94.6927 12.3594 95.5416 12.9727C96.3906 13.5861 96.8904 14.452 97.041 15.5704H94.5269C94.4958 15.3429 94.4151 15.1236 94.2899 14.9259C94.1646 14.7282 93.9973 14.5562 93.7982 14.4204C93.3937 14.1442 92.8533 14.0066 92.1768 14.0077C91.5154 14.0077 91.0035 14.1329 90.641 14.3866C90.4706 14.4951 90.3316 14.6409 90.2363 14.8111C90.141 14.9812 90.0922 15.1706 90.0944 15.3624C90.0944 15.7615 90.3458 16.0744 90.8505 16.3044C91.4888 16.5773 92.157 16.7854 92.8435 16.925C93.6173 17.0816 94.3812 17.2775 95.1317 17.5119C95.7761 17.7005 96.3592 18.036 96.8278 18.4877C97.2578 18.9173 97.4728 19.5458 97.4728 20.3734C97.4887 20.8702 97.3794 21.3637 97.1536 21.8144C96.9278 22.2651 96.5916 22.6606 96.172 22.9693C95.2878 23.6593 94.0872 24.0043 92.5703 24.0043Z" fill="#0EAA4F"/>
</g>
<defs>
<clipPath id="clip0_22849_87668">
<rect width="145" height="30" fill="white"/>
</clipPath>
</defs>
</svg>
