<svg id="Layer_1" data-name="Layer 1" xmlns="http://www.w3.org/2000/svg" viewBox="0 0 483.08 132.63"><defs><style>.cls-1{fill:#fcf992;}.cls-2{fill:#142854;}.cls-3{fill:#fff;}</style></defs><rect class="cls-1" x="4.2" y="1.99" width="128.66" height="128.66" rx="34.13"/><path class="cls-2" d="M58.28,38.83c-6.67,0-11.83,2.4-15.34,7.14l-.09.14v8l.76-.49a9.1,9.1,0,0,1,5-1.22c6.27,0,8.83,3,8.83,10.52V96.63h7.33A10.76,10.76,0,0,0,75.5,85.88V55.59C75.13,44.93,68.85,38.83,58.28,38.83Z"/><path class="cls-2" d="M94.17,38.83c-6.71,0-11.87,2.42-15.35,7.21l-.1.13v8l.77-.49a9.09,9.09,0,0,1,5-1.22c6.27,0,8.83,3,8.83,10.52V96.63h7.36a10.77,10.77,0,0,0,10.76-10.75V57.28C111.43,45.55,105.13,38.83,94.17,38.83Z"/><path class="cls-2" d="M39.42,80.6H36.57a11,11,0,0,0-10.94,11v2.84a2.23,2.23,0,0,0,2.23,2.24H39.42a2.23,2.23,0,0,0,2.23-2.24V82.84A2.24,2.24,0,0,0,39.42,80.6Z"/><path class="cls-3" d="M233.14,35.8c-9.63,0-16.84,5.32-20.21,14.75C211.14,41,204.59,35.8,194.17,35.8,182.56,35.8,177,43,174.41,49.41V37H158.34V98.62h5.72a10.36,10.36,0,0,0,10.35-10.34V64.19c0-7.14,2-15.65,11.45-15.65,7.92,0,11.45,3.61,11.45,11.7V98.62H203a10.36,10.36,0,0,0,10.35-10.34V64.19c0-7.14,2-15.65,11.45-15.65,7.92,0,11.45,3.61,11.45,11.7V98.62H242a10.36,10.36,0,0,0,10.35-10.34V56.05C252.35,43,245.53,35.8,233.14,35.8Z"/><path class="cls-3" d="M286.8,35.8c-18.48,0-30.89,12.9-30.89,32.09s12.83,32,31.93,32c15.54,0,23.82-7.21,28-13.27l.36-.52L306.05,76l-.45,1c-3.08,6.66-9,10-17.63,10-9.58,0-15.59-5.46-16.58-15h45l.13-.6a36.68,36.68,0,0,0,.54-6.2C317.05,47.33,305.17,35.8,286.8,35.8ZM271.56,61.58c1.32-8.5,6.7-13.16,15.24-13.16,8.93,0,14.27,4.54,15.51,13.16Z"/><path class="cls-3" d="M350.85,35.8c-18.48,0-30.9,12.9-30.9,32.09s12.84,32,31.94,32c15.53,0,23.81-7.21,28-13.27l.36-.52L370.1,76l-.46,1c-3.08,6.66-9,10-17.62,10-9.59,0-15.59-5.46-16.58-15h45l.13-.6a36.84,36.84,0,0,0,.53-6.2C381.09,47.33,369.22,35.8,350.85,35.8Zm0,12.62c8.92,0,14.27,4.54,15.5,13.16H335.61C336.92,53.08,342.31,48.42,350.85,48.42Z"/><path class="cls-3" d="M429.07,48.84c-3.39-8.56-10.05-13-19.5-13-15.77,0-26,12.6-26,32.09,0,19.79,10,32.09,26.21,32.09,9.43,0,15.89-4.34,19.25-12.9V98.62h5.72a10.35,10.35,0,0,0,10.34-10.34V14.46H429.07Zm0,15.35v7.52c0,10.3-4.6,15.53-13.66,15.53-9.61,0-15.35-7.23-15.35-19.35s5.69-19.35,15.22-19.35C424.43,48.54,429.07,53.81,429.07,64.19Z"/><path class="cls-3" d="M480.51,99.26h-6.89a26.45,26.45,0,0,1-7.09-1,21.62,21.62,0,0,1-7-3.45A18.43,18.43,0,0,1,452,79.14V14.49h15.43V79.14a5.37,5.37,0,0,0,1.78,4.22,6.49,6.49,0,0,0,4.45,1.57h6.89Z"/></svg>