<svg width="87" height="23" viewBox="0 0 87 23" fill="none" xmlns="http://www.w3.org/2000/svg">
<path d="M0.29 22V0.999999H3.65L8 10.48L12.35 0.999999H15.71V22H12.68V7.06L9.26 14.56H6.74L3.32 7.09V22H0.29ZM26.1683 22.36C24.7283 22.36 23.4583 22.04 22.3583 21.4C21.2583 20.74 20.3983 19.83 19.7783 18.67C19.1583 17.51 18.8483 16.16 18.8483 14.62C18.8483 13.06 19.1483 11.69 19.7483 10.51C20.3683 9.33 21.2283 8.41 22.3283 7.75C23.4483 7.09 24.7383 6.76 26.1983 6.76C27.6383 6.76 28.8783 7.09 29.9183 7.75C30.9583 8.39 31.7583 9.25 32.3183 10.33C32.8983 11.41 33.1883 12.6 33.1883 13.9C33.1883 14.1 33.1883 14.32 33.1883 14.56C33.1883 14.78 33.1783 15.03 33.1583 15.31H21.9683C22.0683 16.69 22.5183 17.74 23.3183 18.46C24.1183 19.16 25.0583 19.51 26.1383 19.51C27.0783 19.51 27.8183 19.32 28.3583 18.94C28.9183 18.54 29.3283 18 29.5883 17.32H32.7983C32.4383 18.74 31.6883 19.94 30.5483 20.92C29.4083 21.88 27.9483 22.36 26.1683 22.36ZM26.1683 9.52C25.1883 9.52 24.3183 9.82 23.5583 10.42C22.7983 11 22.3083 11.82 22.0883 12.88H30.0083C29.9283 11.88 29.5383 11.07 28.8383 10.45C28.1383 9.83 27.2483 9.52 26.1683 9.52ZM44.1566 22.36C42.7166 22.36 41.4466 22.04 40.3466 21.4C39.2466 20.74 38.3866 19.83 37.7666 18.67C37.1466 17.51 36.8366 16.16 36.8366 14.62C36.8366 13.06 37.1366 11.69 37.7366 10.51C38.3566 9.33 39.2166 8.41 40.3166 7.75C41.4366 7.09 42.7266 6.76 44.1866 6.76C45.6266 6.76 46.8666 7.09 47.9066 7.75C48.9466 8.39 49.7466 9.25 50.3066 10.33C50.8866 11.41 51.1766 12.6 51.1766 13.9C51.1766 14.1 51.1766 14.32 51.1766 14.56C51.1766 14.78 51.1666 15.03 51.1466 15.31H39.9566C40.0566 16.69 40.5066 17.74 41.3066 18.46C42.1066 19.16 43.0466 19.51 44.1266 19.51C45.0666 19.51 45.8066 19.32 46.3466 18.94C46.9066 18.54 47.3166 18 47.5766 17.32H50.7866C50.4266 18.74 49.6766 19.94 48.5366 20.92C47.3966 21.88 45.9366 22.36 44.1566 22.36ZM44.1566 9.52C43.1766 9.52 42.3066 9.82 41.5466 10.42C40.7866 11 40.2966 11.82 40.0766 12.88H47.9966C47.9166 11.88 47.5266 11.07 46.8266 10.45C46.1266 9.83 45.2366 9.52 44.1566 9.52ZM61.1548 22.36C59.9148 22.36 58.8048 22.07 57.8248 21.49C56.8448 20.89 56.0648 20.01 55.4848 18.85C54.9248 17.69 54.6448 16.26 54.6448 14.56C54.6448 12.86 54.9348 11.43 55.5148 10.27C56.0948 9.11 56.8748 8.24 57.8548 7.66C58.8548 7.06 59.9648 6.76 61.1848 6.76C62.3248 6.76 63.2648 6.98 64.0048 7.42C64.7448 7.84 65.2948 8.38 65.6548 9.04V0.399999H68.8348V22H66.1048L65.8348 19.81H65.6548C65.2548 20.59 64.6848 21.21 63.9448 21.67C63.2248 22.13 62.2948 22.36 61.1548 22.36ZM61.8148 19.33C62.9548 19.33 63.8948 18.93 64.6348 18.13C65.3948 17.33 65.7748 16.14 65.7748 14.56C65.7748 12.96 65.3948 11.77 64.6348 10.99C63.8948 10.19 62.9548 9.79 61.8148 9.79C60.6748 9.79 59.7248 10.19 58.9648 10.99C58.2248 11.79 57.8548 12.99 57.8548 14.59C57.8548 16.17 58.2248 17.36 58.9648 18.16C59.7248 18.94 60.6748 19.33 61.8148 19.33ZM72.9931 22V19.24H77.9731V4.15C77.9731 3.49 77.6531 3.16 77.0131 3.16H73.4131V0.399999H77.5831C78.7431 0.399999 79.6231 0.709999 80.2231 1.33C80.8431 1.93 81.1531 2.81 81.1531 3.97V19.24H86.1631V22H72.9931Z" fill="#0D9B48"/>
</svg>
