<svg id="Layer_1" data-name="Layer 1" xmlns="http://www.w3.org/2000/svg" viewBox="0 0 483.08 132.63"><defs><style>.cls-1{fill:#142854;}.cls-2{fill:#fff;}</style></defs><rect class="cls-1" x="4.2" y="1.97" width="128.66" height="128.66" rx="34.13"/><path class="cls-2" d="M58.28,39.31c-7.12,0-11.86,2.79-14.93,6.95v7a9.51,9.51,0,0,1,5.24-1.31c6.93,0,9.33,3.76,9.33,11V96.12h6.83A10.26,10.26,0,0,0,75,85.86V55.59C74.65,45.37,68.69,39.31,58.28,39.31Z"/><path class="cls-2" d="M94.17,39.31c-7.14,0-11.89,2.81-15,7v6.9a9.6,9.6,0,0,1,5.26-1.31c6.94,0,9.33,3.76,9.33,11V96.12h6.86a10.27,10.27,0,0,0,10.26-10.26V57.26C110.93,45.78,104.94,39.31,94.17,39.31Z"/><path class="cls-2" d="M39.42,81.09H36.57A10.44,10.44,0,0,0,26.13,91.53v2.85a1.73,1.73,0,0,0,1.73,1.74H39.42a1.73,1.73,0,0,0,1.73-1.74V82.82A1.73,1.73,0,0,0,39.42,81.09Z"/><path class="cls-1" d="M233.14,37.25c-9.63,0-16.84,5.33-20.21,14.75-1.79-9.55-8.34-14.75-18.76-14.75-11.61,0-17.15,7.23-19.76,13.61V38.49H158.34v61.58h5.72a10.36,10.36,0,0,0,10.35-10.34V65.64c0-7.14,2-15.65,11.45-15.65,7.92,0,11.45,3.61,11.45,11.7v38.38H203a10.36,10.36,0,0,0,10.35-10.34V65.64c0-7.14,2-15.65,11.45-15.65,7.92,0,11.45,3.61,11.45,11.7v38.38H242a10.36,10.36,0,0,0,10.35-10.34V57.5C252.35,44.44,245.53,37.25,233.14,37.25Z"/><path class="cls-1" d="M286.8,37.25c-18.48,0-30.89,12.9-30.89,32.09s12.83,32,31.93,32c15.54,0,23.82-7.22,28-13.28l.36-.52L306.05,77.42l-.45,1c-3.08,6.66-9,10-17.63,10-9.58,0-15.59-5.45-16.58-15h45l.13-.6a36.68,36.68,0,0,0,.54-6.2C317.05,48.78,305.17,37.25,286.8,37.25ZM271.56,63c1.32-8.49,6.7-13.16,15.24-13.16,8.93,0,14.27,4.55,15.51,13.16Z"/><path class="cls-1" d="M350.85,37.25c-18.48,0-30.9,12.9-30.9,32.09s12.84,32,31.94,32c15.53,0,23.81-7.22,28-13.28l.36-.52L370.1,77.42l-.46,1c-3.08,6.66-9,10-17.62,10-9.59,0-15.59-5.45-16.58-15h45l.13-.6a36.84,36.84,0,0,0,.53-6.2C381.09,48.78,369.22,37.25,350.85,37.25Zm0,12.62c8.92,0,14.27,4.55,15.5,13.16H335.61C336.92,54.54,342.31,49.87,350.85,49.87Z"/><path class="cls-1" d="M429.07,50.29c-3.39-8.55-10.05-13-19.5-13-15.77,0-26,12.6-26,32.09,0,19.79,10,32.09,26.21,32.09,9.43,0,15.89-4.34,19.25-12.9v11.54h5.72a10.35,10.35,0,0,0,10.34-10.34V15.91H429.07Zm0,15.35v7.53c0,10.3-4.6,15.52-13.66,15.52-9.61,0-15.35-7.23-15.35-19.35S405.75,50,415.28,50C424.43,50,429.07,55.26,429.07,65.64Z"/><path class="cls-1" d="M480.51,100.72h-6.89a26.48,26.48,0,0,1-7.09-1,21.79,21.79,0,0,1-7-3.44A18.43,18.43,0,0,1,452,80.6V15.94h15.43V80.6a5.34,5.34,0,0,0,1.78,4.21,6.49,6.49,0,0,0,4.45,1.57h6.89Z"/></svg>