<svg width="538" height="97" viewBox="0 0 538 97" fill="none" xmlns="http://www.w3.org/2000/svg">
<path d="M7.95 34H2.3V0.499999H17.4C24.2 0.499999 29.3 4 29.3 10.9C29.3 16.5 25.45 19.8 20.2 20.4C22.2 21 23.55 22.25 24.75 24.35L30.45 34H23.95L18.15 24.05C16.9 21.8 15.2 21 12.05 21H7.95V34ZM16.85 5.5H7.95V16.4H16.85C20.4 16.4 23.45 15.1 23.45 11.05C23.45 6.8 20.4 5.5 16.85 5.5ZM43.9023 34.5C36.6523 34.5 31.9023 29.45 31.9023 21.85C31.9023 14.2 36.6523 9.15 43.5023 9.15C50.8023 9.15 54.8523 14 54.8523 20.75C54.8523 21.65 54.7523 22.7 54.6523 23.2H37.2523C37.5523 27.55 40.1023 29.9 43.9523 29.9C48.2023 29.9 50.1023 27.7 51.0023 25.65L54.4523 29.25C52.6023 32.05 49.3023 34.5 43.9023 34.5ZM43.5023 13.65C40.0523 13.65 37.7523 15.65 37.3023 19.6H49.8023C49.4023 15.75 47.2023 13.65 43.5023 13.65ZM71.6418 34H64.4918L55.8418 9.65H62.0418L66.1918 22.9L68.1918 30.35L70.1418 22.9L74.2418 9.65H80.3418L71.6418 34ZM92.4734 34.5C85.4734 34.5 80.6734 29.4 80.6734 21.85C80.6734 14.25 85.4734 9.15 92.4734 9.15C99.5734 9.15 104.373 14.25 104.373 21.85C104.373 29.4 99.5734 34.5 92.4734 34.5ZM92.5234 29.85C96.1734 29.85 98.6734 27.45 98.6734 21.85C98.6734 16.2 96.1734 13.8 92.5234 13.8C88.9234 13.8 86.4234 16.2 86.4234 21.85C86.4234 27.45 88.9234 29.85 92.5234 29.85ZM114.874 34H109.274V0.499999H114.874V34ZM128.248 34.5C123.548 34.5 120.648 31.65 120.648 26.6V9.65H126.248V24.9C126.248 27.9 127.248 29.95 130.998 29.95C135.098 29.95 136.498 27.3 136.498 23.3V9.65H142.148V34H136.498V27.35C135.598 31.2 133.098 34.5 128.248 34.5ZM156.209 34.55C151.609 34.55 148.959 31.65 148.959 27.35V14H145.159V9.65H148.959V6.7L154.559 3.15V9.65H162.009V14H154.559V26C154.559 28.65 155.809 29.3 157.459 29.3C159.359 29.3 160.759 27.75 161.459 26.35L163.209 31.35C162.159 32.9 159.759 34.55 156.209 34.55ZM172.589 6.2H166.989V0.499999H172.589V6.2ZM172.589 34H166.989V9.65H172.589V34ZM188.762 34.5C181.763 34.5 176.963 29.4 176.963 21.85C176.963 14.25 181.763 9.15 188.762 9.15C195.863 9.15 200.663 14.25 200.663 21.85C200.663 29.4 195.863 34.5 188.762 34.5ZM188.813 29.85C192.463 29.85 194.963 27.45 194.963 21.85C194.963 16.2 192.463 13.8 188.813 13.8C185.213 13.8 182.713 16.2 182.713 21.85C182.713 27.45 185.213 29.85 188.813 29.85ZM211.066 34H205.466V9.65H211.066V16.3C211.966 12.45 214.466 9.15 219.316 9.15C224.066 9.15 226.966 12 226.966 17.05V34H221.316V18.75C221.316 15.75 220.316 13.7 216.566 13.7C212.466 13.7 211.066 16.35 211.066 20.35V34ZM238.312 6.2H232.712V0.499999H238.312V6.2ZM238.312 34H232.712V9.65H238.312V34ZM264.335 34H242.835V29.65L253.785 17.45L257.385 14.15L251.685 14.45H243.735V9.65H263.835V14L252.885 25.85L249.035 29.5L255.335 29.25H264.335V34ZM274.445 6.2H268.845V0.499999H274.445V6.2ZM274.445 34H268.845V9.65H274.445V34ZM285.968 34H280.368V9.65H285.968V16.3C286.868 12.45 289.368 9.15 294.218 9.15C298.968 9.15 301.868 12 301.868 17.05V34H296.218V18.75C296.218 15.75 295.218 13.7 291.468 13.7C287.368 13.7 285.968 16.35 285.968 20.35V34ZM317.322 26.7C315.422 26.7 313.672 26.35 312.222 25.65C311.772 26.4 311.222 27.35 311.222 28.2C311.222 29.45 311.872 30.1 314.122 30.1H321.972C326.822 30.1 329.472 32.05 329.472 35.7C329.472 40.3 324.972 43.8 316.122 43.8C309.322 43.8 305.372 41.65 305.372 38.6C305.372 36.3 307.572 35.05 309.922 34.5C308.172 34 307.022 32.85 307.022 31C307.022 28.8 308.922 26.65 311.172 25.1C308.722 23.6 307.222 21.05 307.222 17.95C307.222 12.8 311.322 9.15 317.322 9.15C318.872 9.15 320.272 9.4 321.522 9.85L322.722 4L328.122 5.85L323.572 10.85C325.972 12.4 327.372 14.9 327.372 17.95C327.372 23.1 323.322 26.7 317.322 26.7ZM317.322 22.7C319.972 22.7 322.072 21 322.072 17.95C322.072 14.9 319.972 13.2 317.322 13.2C314.672 13.2 312.572 14.9 312.572 17.95C312.572 21 314.672 22.7 317.322 22.7ZM316.372 39.6C321.622 39.6 324.422 38.45 324.422 36.4C324.422 35.1 323.372 34.55 321.222 34.55H311.072C310.522 35.1 309.922 35.9 309.922 36.75C309.922 38.55 311.922 39.6 316.372 39.6ZM350.904 34H345.304V14H341.554V9.65H345.304V7.95C345.304 2.8 348.754 -3.57628e-07 354.154 -3.57628e-07C358.104 -3.57628e-07 361.154 1.8 362.504 3L360.054 6.95C358.904 5.65 356.754 4.45 354.254 4.45C351.854 4.45 350.904 5.7 350.904 8.05V9.65H364.854V34H359.204V14H350.904V34ZM376.349 34H370.749V9.65H376.349V16.3C377.249 12.45 379.749 9.15 384.599 9.15C389.349 9.15 392.249 12 392.249 17.05V34H386.599V18.75C386.599 15.75 385.599 13.7 381.849 13.7C377.749 13.7 376.349 16.35 376.349 20.35V34ZM403.194 34.5C399.194 34.5 396.794 32.25 396.794 28.75C396.794 25.3 399.194 23.2 403.144 21.65L411.294 18.2C411.094 15.75 409.994 14.1 406.644 14.1C403.394 14.1 400.844 16 399.444 18.55L396.094 14.55C397.994 11.95 401.794 9.15 407.194 9.15C413.244 9.15 416.644 12.6 416.644 18.6V27.75C416.644 28.85 417.044 29.2 417.944 29.2H419.494V34H416.044C413.444 34 411.394 32.8 411.394 29.3V27.5C410.644 30.7 408.294 34.5 403.194 34.5ZM402.194 27.9C402.194 29.3 403.144 30.15 405.194 30.15C408.894 30.15 411.394 27.95 411.394 24.65V22.05L405.144 24.85C403.044 25.8 402.194 26.65 402.194 27.9ZM429.376 34H423.776V9.65H429.376V16.3C430.276 12.45 432.776 9.15 437.626 9.15C442.376 9.15 445.276 12 445.276 17.05V34H439.626V18.75C439.626 15.75 438.626 13.7 434.876 13.7C430.776 13.7 429.376 16.35 429.376 20.35V34ZM461.475 34.5C454.225 34.5 449.675 29.4 449.675 21.85C449.675 14.25 454.225 9.15 461.475 9.15C467.575 9.15 471.425 12.6 472.725 17.2L467.675 19.7C467.125 16.2 465.325 13.85 461.575 13.85C457.725 13.85 455.375 16.7 455.375 21.85C455.375 26.95 457.725 29.8 461.575 29.8C465.375 29.8 467.125 27.45 467.675 23.95L472.725 26.45C471.425 31.05 467.575 34.5 461.475 34.5ZM482.648 6.2H477.048V0.499999H482.648V6.2ZM482.648 34H477.048V9.65H482.648V34ZM494.171 34H488.571V9.65H494.171V16.3C495.071 12.45 497.571 9.15 502.421 9.15C507.171 9.15 510.071 12 510.071 17.05V34H504.421V18.75C504.421 15.75 503.421 13.7 499.671 13.7C495.571 13.7 494.171 16.35 494.171 20.35V34ZM525.525 26.7C523.625 26.7 521.875 26.35 520.425 25.65C519.975 26.4 519.425 27.35 519.425 28.2C519.425 29.45 520.075 30.1 522.325 30.1H530.175C535.025 30.1 537.675 32.05 537.675 35.7C537.675 40.3 533.175 43.8 524.325 43.8C517.525 43.8 513.575 41.65 513.575 38.6C513.575 36.3 515.775 35.05 518.125 34.5C516.375 34 515.225 32.85 515.225 31C515.225 28.8 517.125 26.65 519.375 25.1C516.925 23.6 515.425 21.05 515.425 17.95C515.425 12.8 519.525 9.15 525.525 9.15C527.075 9.15 528.475 9.4 529.725 9.85L530.925 4L536.325 5.85L531.775 10.85C534.175 12.4 535.575 14.9 535.575 17.95C535.575 23.1 531.525 26.7 525.525 26.7ZM525.525 22.7C528.175 22.7 530.275 21 530.275 17.95C530.275 14.9 528.175 13.2 525.525 13.2C522.875 13.2 520.775 14.9 520.775 17.95C520.775 21 522.875 22.7 525.525 22.7ZM524.575 39.6C529.825 39.6 532.625 38.45 532.625 36.4C532.625 35.1 531.575 34.55 529.425 34.55H519.275C518.725 35.1 518.125 35.9 518.125 36.75C518.125 38.55 520.125 39.6 524.575 39.6ZM7.1 96.5C3.1 96.5 0.7 94.25 0.7 90.75C0.7 87.3 3.1 85.2 7.05 83.65L15.2 80.2C15 77.75 13.9 76.1 10.55 76.1C7.3 76.1 4.75 78 3.35 80.55L7.07805e-08 76.55C1.9 73.95 5.7 71.15 11.1 71.15C17.15 71.15 20.55 74.6 20.55 80.6V89.75C20.55 90.85 20.95 91.2 21.85 91.2H23.4V96H19.95C17.35 96 15.3 94.8 15.3 91.3V89.5C14.55 92.7 12.2 96.5 7.1 96.5ZM6.1 89.9C6.1 91.3 7.05 92.15 9.1 92.15C12.8 92.15 15.3 89.95 15.3 86.65V84.05L9.05 86.85C6.95 87.8 6.1 88.65 6.1 89.9ZM33.2824 96H27.6824V71.65H33.2824V78.3C34.1824 74.45 36.6824 71.15 41.5324 71.15C46.2824 71.15 49.1824 74 49.1824 79.05V96H43.5324V80.75C43.5324 77.75 42.5324 75.7 38.7824 75.7C34.6824 75.7 33.2824 78.35 33.2824 82.35V96ZM63.2809 96.55C57.2809 96.55 53.4809 91.7 53.4809 83.85C53.4809 76 57.2809 71.15 63.1809 71.15C68.0309 71.15 70.1809 74.4 70.9809 78.2V62.5H76.5809V96H70.9809V89.55C70.1809 93.3 68.1309 96.55 63.2809 96.55ZM59.2309 83.85C59.2309 89.35 61.8809 92 65.4309 92C69.3309 92 70.9809 89.4 70.9809 85.4V82.35C70.9809 78.35 69.3309 75.7 65.3809 75.7C61.8809 75.7 59.2309 78.4 59.2309 83.85ZM98.018 96.5C94.018 96.5 91.618 94.25 91.618 90.75C91.618 87.3 94.018 85.2 97.968 83.65L106.118 80.2C105.918 77.75 104.818 76.1 101.468 76.1C98.218 76.1 95.668 78 94.268 80.55L90.918 76.55C92.818 73.95 96.618 71.15 102.018 71.15C108.068 71.15 111.468 74.6 111.468 80.6V89.75C111.468 90.85 111.868 91.2 112.768 91.2H114.318V96H110.868C108.268 96 106.218 94.8 106.218 91.3V89.5C105.468 92.7 103.118 96.5 98.018 96.5ZM97.018 89.9C97.018 91.3 97.968 92.15 100.018 92.15C103.718 92.15 106.218 89.95 106.218 86.65V84.05L99.968 86.85C97.868 87.8 97.018 88.65 97.018 89.9ZM129.053 96.5C121.803 96.5 117.253 91.4 117.253 83.85C117.253 76.25 121.803 71.15 129.053 71.15C135.153 71.15 139.003 74.6 140.303 79.2L135.253 81.7C134.703 78.2 132.903 75.85 129.153 75.85C125.303 75.85 122.953 78.7 122.953 83.85C122.953 88.95 125.303 91.8 129.153 91.8C132.953 91.8 134.703 89.45 135.253 85.95L140.303 88.45C139.003 93.05 135.153 96.5 129.053 96.5ZM154.736 96.5C147.486 96.5 142.936 91.4 142.936 83.85C142.936 76.25 147.486 71.15 154.736 71.15C160.836 71.15 164.686 74.6 165.986 79.2L160.936 81.7C160.386 78.2 158.586 75.85 154.836 75.85C150.986 75.85 148.636 78.7 148.636 83.85C148.636 88.95 150.986 91.8 154.836 91.8C158.636 91.8 160.386 89.45 160.936 85.95L165.986 88.45C164.686 93.05 160.836 96.5 154.736 96.5ZM180.67 96.5C173.42 96.5 168.67 91.45 168.67 83.85C168.67 76.2 173.42 71.15 180.27 71.15C187.57 71.15 191.62 76 191.62 82.75C191.62 83.65 191.52 84.7 191.42 85.2H174.02C174.32 89.55 176.87 91.9 180.72 91.9C184.97 91.9 186.87 89.7 187.77 87.65L191.22 91.25C189.37 94.05 186.07 96.5 180.67 96.5ZM180.27 75.65C176.82 75.65 174.52 77.65 174.07 81.6H186.57C186.17 77.75 183.97 75.65 180.27 75.65ZM206.141 96.5C200.941 96.5 196.191 94.4 194.341 90.55L197.641 87.05C198.991 89.5 201.991 92 206.341 92C208.741 92 210.291 91.15 210.291 89.4C210.291 87.6 208.441 87 205.741 86.35L202.491 85.55C198.641 84.65 195.091 82.95 195.091 78.5C195.091 73.95 198.741 71.2 204.341 71.2C209.541 71.2 213.191 73.7 214.691 76.45L211.391 79.95C209.691 77.25 207.091 75.65 203.941 75.65C201.791 75.65 200.341 76.55 200.341 78.2C200.341 79.95 201.641 80.6 204.941 81.45L207.891 82.2C213.341 83.6 215.341 85.8 215.341 89.3C215.341 94.1 211.291 96.5 206.141 96.5ZM229.188 96.5C223.988 96.5 219.238 94.4 217.388 90.55L220.688 87.05C222.038 89.5 225.038 92 229.387 92C231.788 92 233.338 91.15 233.338 89.4C233.338 87.6 231.488 87 228.788 86.35L225.538 85.55C221.688 84.65 218.138 82.95 218.138 78.5C218.138 73.95 221.788 71.2 227.388 71.2C232.588 71.2 236.238 73.7 237.738 76.45L234.438 79.95C232.738 77.25 230.138 75.65 226.988 75.65C224.838 75.65 223.388 76.55 223.388 78.2C223.388 79.95 224.688 80.6 227.988 81.45L230.938 82.2C236.388 83.6 238.388 85.8 238.388 89.3C238.388 94.1 234.338 96.5 229.188 96.5ZM262.02 96.55C257.42 96.55 254.77 93.65 254.77 89.35V76H250.97V71.65H254.77V68.7L260.37 65.15V71.65H267.82V76H260.37V88C260.37 90.65 261.62 91.3 263.27 91.3C265.17 91.3 266.57 89.75 267.27 88.35L269.02 93.35C267.97 94.9 265.57 96.55 262.02 96.55ZM281.438 96.5C274.438 96.5 269.638 91.4 269.638 83.85C269.638 76.25 274.438 71.15 281.438 71.15C288.538 71.15 293.338 76.25 293.338 83.85C293.338 91.4 288.538 96.5 281.438 96.5ZM281.488 91.85C285.138 91.85 287.638 89.45 287.638 83.85C287.638 78.2 285.138 75.8 281.488 75.8C277.888 75.8 275.388 78.2 275.388 83.85C275.388 89.45 277.888 91.85 281.488 91.85ZM314.239 96H308.639V62.5H314.239V96ZM330.413 96.5C323.413 96.5 318.613 91.4 318.613 83.85C318.613 76.25 323.413 71.15 330.413 71.15C337.513 71.15 342.313 76.25 342.313 83.85C342.313 91.4 337.513 96.5 330.413 96.5ZM330.463 91.85C334.113 91.85 336.613 89.45 336.613 83.85C336.613 78.2 334.113 75.8 330.463 75.8C326.863 75.8 324.363 78.2 324.363 83.85C324.363 89.45 326.863 91.85 330.463 91.85ZM352.364 96.5C348.364 96.5 345.964 94.25 345.964 90.75C345.964 87.3 348.364 85.2 352.314 83.65L360.464 80.2C360.264 77.75 359.164 76.1 355.814 76.1C352.564 76.1 350.014 78 348.614 80.55L345.264 76.55C347.164 73.95 350.964 71.15 356.364 71.15C362.414 71.15 365.814 74.6 365.814 80.6V89.75C365.814 90.85 366.214 91.2 367.114 91.2H368.664V96H365.214C362.614 96 360.564 94.8 360.564 91.3V89.5C359.814 92.7 357.464 96.5 352.364 96.5ZM351.364 89.9C351.364 91.3 352.314 92.15 354.364 92.15C358.064 92.15 360.564 89.95 360.564 86.65V84.05L354.314 86.85C352.214 87.8 351.364 88.65 351.364 89.9ZM378.546 96H372.946V71.65H378.546V78.3C379.446 74.45 381.946 71.15 386.796 71.15C391.546 71.15 394.446 74 394.446 79.05V96H388.796V80.75C388.796 77.75 387.796 75.7 384.046 75.7C379.946 75.7 378.546 78.35 378.546 82.35V96ZM409.461 96.5C404.261 96.5 399.511 94.4 397.661 90.55L400.961 87.05C402.311 89.5 405.311 92 409.661 92C412.061 92 413.611 91.15 413.611 89.4C413.611 87.6 411.761 87 409.061 86.35L405.811 85.55C401.961 84.65 398.411 82.95 398.411 78.5C398.411 73.95 402.061 71.2 407.661 71.2C412.861 71.2 416.511 73.7 418.011 76.45L414.711 79.95C413.011 77.25 410.411 75.65 407.261 75.65C405.111 75.65 403.661 76.55 403.661 78.2C403.661 79.95 404.961 80.6 408.261 81.45L411.211 82.2C416.661 83.6 418.661 85.8 418.661 89.3C418.661 94.1 414.611 96.5 409.461 96.5Z" fill="#101828"/>
</svg>
