<svg width="300" height="300" viewBox="0 0 300 300" fill="none" xmlns="http://www.w3.org/2000/svg">
<path d="M219 3.98999H80.98C37.9018 3.98999 2.97998 38.9118 2.97998 81.99V220.01C2.97998 263.088 37.9018 298.01 80.98 298.01H219C262.078 298.01 297 263.088 297 220.01V81.99C297 38.9118 262.078 3.98999 219 3.98999Z" fill="#142854"/>
<path d="M126.57 89.3201C110.31 89.3201 99.4602 95.7001 92.4502 105.2V121.1C95.5702 119.1 99.4502 118.1 104.45 118.1C120.29 118.1 125.78 126.67 125.78 143.29V219.11H141.39C147.596 219.1 153.544 216.63 157.932 212.242C162.32 207.854 164.79 201.906 164.8 195.7V126.52C164 103.18 150.38 89.3201 126.57 89.3201Z" fill="#FCF992"/>
<path d="M208.59 89.3201C192.29 89.3201 181.41 95.7401 174.43 105.32V121.1C177.55 119.1 181.52 118.1 186.43 118.1C202.31 118.1 207.76 126.67 207.76 143.29V219.11H223.44C229.656 219.107 235.617 216.637 240.012 212.242C244.407 207.846 246.878 201.886 246.88 195.67V130.35C246.89 104.1 233.21 89.3201 208.59 89.3201Z" fill="#FCF992"/>
<path d="M83.4701 184.8H77.0001C73.8629 184.796 70.7557 185.411 67.8562 186.608C64.9567 187.806 62.3218 189.564 60.1021 191.781C57.8823 193.998 56.1214 196.63 54.92 199.528C53.7185 202.426 53.1001 205.533 53.1001 208.67V215.17C53.1001 216.231 53.5215 217.248 54.2717 217.998C55.0218 218.749 56.0392 219.17 57.1001 219.17H83.4701C84.531 219.17 85.5484 218.749 86.2985 217.998C87.0487 217.248 87.4701 216.231 87.4701 215.17V188.76C87.4596 187.706 87.0335 186.699 86.2845 185.957C85.5355 185.216 84.5241 184.8 83.4701 184.8Z" fill="#FCF992"/>
</svg>
