<svg id="Layer_1" data-name="Layer 1" xmlns="http://www.w3.org/2000/svg" viewBox="0 0 483.08 132.63"><defs><style>.cls-1{fill:#142854;}.cls-2{fill:#fcf992;}</style></defs><rect class="cls-1" x="4.2" y="2.99" width="128.66" height="128.66" rx="34.13"/><path class="cls-2" d="M58.28,40.33c-7.12,0-11.86,2.79-14.93,6.94v7a9.51,9.51,0,0,1,5.24-1.3c6.93,0,9.33,3.75,9.33,11V97.13h6.83A10.25,10.25,0,0,0,75,86.87V56.6C74.65,46.39,68.69,40.33,58.28,40.33Z"/><path class="cls-2" d="M94.17,40.33c-7.14,0-11.89,2.8-15,7v6.9a9.6,9.6,0,0,1,5.26-1.3c6.94,0,9.33,3.75,9.33,11V97.13h6.86a10.26,10.26,0,0,0,10.26-10.26V58.28C110.93,46.79,104.94,40.33,94.17,40.33Z"/><path class="cls-2" d="M39.42,82.1H36.57A10.44,10.44,0,0,0,26.13,92.55V95.4a1.73,1.73,0,0,0,1.73,1.73H39.42a1.73,1.73,0,0,0,1.73-1.73V83.84A1.73,1.73,0,0,0,39.42,82.1Z"/><path class="cls-1" d="M233.14,37.83c-9.63,0-16.84,5.32-20.21,14.75-1.79-9.55-8.34-14.75-18.76-14.75-11.61,0-17.15,7.22-19.76,13.61V39.06H158.34v61.58h5.72A10.35,10.35,0,0,0,174.41,90.3V66.21c0-7.13,2-15.64,11.45-15.64,7.92,0,11.45,3.6,11.45,11.7v38.37H203A10.35,10.35,0,0,0,213.38,90.3V66.21c0-7.13,2-15.64,11.45-15.64,7.92,0,11.45,3.6,11.45,11.7v38.37H242A10.35,10.35,0,0,0,252.35,90.3V58.07C252.35,45,245.53,37.83,233.14,37.83Z"/><path class="cls-1" d="M286.8,37.83c-18.48,0-30.89,12.89-30.89,32.08s12.83,32,31.93,32c15.54,0,23.82-7.22,28-13.28l.36-.52L306.05,78l-.45,1c-3.08,6.67-9,10-17.63,10-9.58,0-15.59-5.46-16.58-15h45l.13-.6a36.68,36.68,0,0,0,.54-6.2C317.05,49.36,305.17,37.83,286.8,37.83ZM271.56,63.61c1.32-8.5,6.7-13.17,15.24-13.17,8.93,0,14.27,4.55,15.51,13.17Z"/><path class="cls-1" d="M350.85,37.83c-18.48,0-30.9,12.89-30.9,32.08s12.84,32,31.94,32c15.53,0,23.81-7.22,28-13.28l.36-.52L370.1,78l-.46,1c-3.08,6.67-9,10-17.62,10-9.59,0-15.59-5.46-16.58-15h45l.13-.6a36.84,36.84,0,0,0,.53-6.2C381.09,49.36,369.22,37.83,350.85,37.83Zm0,12.61c8.92,0,14.27,4.55,15.5,13.17H335.61C336.92,55.11,342.31,50.44,350.85,50.44Z"/><path class="cls-1" d="M429.07,50.86c-3.39-8.55-10.05-13-19.5-13-15.77,0-26,12.59-26,32.08,0,19.8,10,32.09,26.21,32.09,9.43,0,15.89-4.33,19.25-12.9v11.54h5.72A10.35,10.35,0,0,0,445.13,90.3V16.49H429.07Zm0,15.35v7.53c0,10.3-4.6,15.52-13.66,15.52-9.61,0-15.35-7.23-15.35-19.35s5.69-19.34,15.22-19.34C424.43,50.57,429.07,55.83,429.07,66.21Z"/><path class="cls-1" d="M480.51,101.29h-6.89a26.48,26.48,0,0,1-7.09-1.05,21.59,21.59,0,0,1-7-3.44A18.43,18.43,0,0,1,452,81.17V16.51h15.43V81.17a5.38,5.38,0,0,0,1.78,4.22A6.54,6.54,0,0,0,473.62,87h6.89Z"/></svg>